<?xml version="1.0" encoding="UTF-8"?>
<svg id="Layer_2" data-name="Layer 2" xmlns="http://www.w3.org/2000/svg" viewBox="0 0 174.59 134.21">
  <defs>
    <style>
      .cls-1 {
        fill: #e2d590;
      }

      .cls-2 {
        fill: #a3a46b;
      }
    </style>
  </defs>
  <rect class="cls-2" y="0" width="174.59" height="134.21" rx="48.58" ry="48.58"/>
  <g>
    <path class="cls-1" d="M127.62,40.04c.31.41-5.74,6.94-7.47,6.97s-11.3-4.59-14.54-5.47c-3.93-1.07-9.45-2.39-13.45-2.55-30.4-1.19-42.41,32.31-20.54,52.03-10.19-1.64-16.08-2.47-19.3-13.19-3.33-11.06-1.14-22.33,5.3-31.79-11.87,3.96-21.47,12.62-29.98,21.49,18.89,21.33,57.71,42.47,79.96,13.98,7.84-10.04,9.16-23.47,17.2-33.8,6.94-8.92,21.33-16.84,32.77-16.61,2.4,11.28-1.54,7.92-9.2,11.18-26.26,11.17-20.21,31.51-36.23,48.77-23.24,25.05-58.59,11.91-80.98-7.03-2.62-2.22-14.57-13.53-15.08-15.89s10.61-12.97,13.03-15.12c13.3-11.78,29.41-20.25,47.15-22.85,18.46-2.71,34.87,1.94,51.38,9.89Z"/>
    <path class="cls-1" d="M100.62,104.02c2.09-2.75,5.74-3.77,8.48-6.01,3.02-2.48,5.5-6.06,8.59-8.41,9.33-7.07,21.39-11.85,28.92-22.07-1.15-2.43-11.73-10.11-11.94-11.11-.27-1.29,5.06-6.53,6.31-6.31,1.94.34,17.58,16.01,17.58,17.42-14.45,17.92-34.42,33.61-57.93,36.49Z"/>
    <path class="cls-1" d="M104.98,67.1c0,9.85-7.98,17.83-17.82,17.83s-17.83-7.98-17.83-17.83,7.98-17.82,17.83-17.82c2.68,0,5.23.59,7.51,1.66-4.08.43-7.25,3.87-7.25,8.06,0,4.47,3.62,8.1,8.1,8.1,4.11,0,7.49-3.05,8.03-7.01.92,2.15,1.43,4.52,1.43,7.01Z"/>
  </g>
</svg>